HIERARCHY
ROOT Hips
{
	OFFSET 0.000000 0.000000 0.000000
	CHANNELS 6 Xposition Yposition Zposition Zrotation Yrotation Xrotation 
	JOINT LHipJoint
	{
		OFFSET 0.000000 0.000000 0.000000
		CHANNELS 3 Zrotation Yrotation Xrotation
		JOINT LeftUpLeg
		{
			OFFSET 1.363060 -1.794630 0.839290
			CHANNELS 3 Zrotation Yrotation Xrotation
			JOINT LeftLeg
			{
				OFFSET 2.448110 -6.726130 0.000000
				CHANNELS 3 Zrotation Yrotation Xrotation
				JOINT LeftFoot
				{
					OFFSET 2.562200 -7.039590 0.000000
					CHANNELS 3 Zrotation Yrotation Xrotation
					JOINT LeftToeBase
					{
						OFFSET 0.157640 -0.433110 2.322550
						CHANNELS 3 Zrotation Yrotation Xrotation
						End Site
						{
							OFFSET 0.000000 0.000000 0.000000
						}
					}
				}
			}
		}
	}
	JOINT RHipJoint
	{
		OFFSET 0.000000 0.000000 0.000000
		CHANNELS 3 Zrotation Yrotation Xrotation
		JOINT RightUpLeg
		{
			OFFSET -1.305520 -1.794630 0.839290
			CHANNELS 3 Zrotation Yrotation Xrotation
			JOINT RightLeg
			{
				OFFSET -2.542530 -6.985550 0.000000
				CHANNELS 3 Zrotation Yrotation Xrotation
				JOINT RightFoot
				{
					OFFSET -2.568260 -7.056230 0.000000
					CHANNELS 3 Zrotation Yrotation Xrotation
					JOINT RightToeBase
					{
						OFFSET -0.164730 -0.452590 2.363150
						CHANNELS 3 Zrotation Yrotation Xrotation
						End Site
						{
							OFFSET 0.000000 0.000000 0.000000
						}
					}
				}
			}
		}
	}
}
MOTION
Frames: 19
Frame Time: 0.008333
-1.005397 17.797659 -0.116580 18.091865 77.423082 37.960426 -9.722244 0.479477 2.883331 -8.530813 -1.062516 -31.165482 -3.097100 -1.040110 1.810601 -0.339020 -1.854002 6.749532 -0.011100 -0.000000 -35.354700 9.374163 -2.956853 1.106307 11.688774 3.580483 -7.904134 1.519685 -1.352009 18.942830 0.663175 5.853922 11.373760 1.513300 -0.000000 -50.220500
-0.794234 17.797965 -0.080927 17.804485 77.077760 37.632705 -9.736079 0.491175 2.961042 -8.600602 -1.036325 -31.239665 -3.176924 -1.069345 1.032147 -0.487045 -3.009674 7.669162 -0.314300 -0.000000 -35.792200 9.454149 -2.981008 0.982746 11.478068 3.019520 -8.307632 1.316918 -1.496015 20.869935 0.518533 4.947177 11.560863 1.270600 0.000000 -52.762500
-0.585889 17.786344 -0.045491 17.643256 76.753253 37.430778 -9.732485 0.503595 3.069982 -8.545817 -1.310279 -31.295190 -3.208052 -1.079740 0.631237 -0.573041 -3.716979 8.248612 -0.516600 -0.000000 -35.831100 9.541643 -2.975706 0.827390 11.263174 2.434389 -8.838631 1.092301 -1.641192 23.119821 0.316798 3.577080 11.318865 0.850300 0.000000 -54.920500
-0.380578 17.762553 -0.010339 17.574619 76.450086 37.304462 -9.713543 0.517664 3.190957 -8.394485 -1.806303 -31.342021 -3.198206 -1.066576 0.649378 -0.608362 -4.029408 8.463703 -0.608900 0.000000 -35.516600 9.635784 -2.939581 0.643961 11.043955 1.847710 -9.440175 0.853588 -1.783956 25.619885 0.055462 1.775664 10.681829 0.290500 0.000000 -56.436600
-0.178456 17.726434 0.024543 17.599121 76.161645 37.256022 -9.678068 0.534150 3.324330 -8.152201 -2.531601 -31.376461 -3.147323 -1.031229 1.063207 -0.593514 -3.924397 8.335834 -0.577000 0.000000 -34.995800 9.739841 -2.870310 0.435476 10.805595 1.273129 -10.099209 0.607098 -1.923906 28.333504 -0.265297 -0.381646 9.696653 -0.346200 0.000001 -57.140000
0.020471 17.678083 0.059358 17.734401 75.881161 37.296227 -9.623861 0.552219 3.460051 -7.855927 -3.450403 -31.400237 -3.061811 -0.974584 1.865714 -0.531964 -3.442708 7.879728 -0.435900 0.000000 -34.394800 9.858058 -2.768829 0.208104 10.525979 0.729808 -10.785869 0.362189 -2.061702 31.203847 -0.637158 -2.772205 8.412841 -0.981501 0.000000 -56.866900
0.216318 17.617593 0.094223 17.978367 75.598737 37.427805 -9.551170 0.571034 3.587774 -7.555446 -4.499335 -31.455631 -2.951465 -0.895509 3.083443 -0.429335 -2.671884 7.099817 -0.222100 -0.000000 -33.832900 9.992105 -2.639921 -0.025312 10.191048 0.242368 -11.501994 0.126566 -2.199749 34.200063 -1.044262 -5.256561 6.885276 -1.538701 0.000000 -55.545400
0.409196 17.545233 0.129415 18.341916 75.302080 37.667657 -9.459569 0.589109 3.698012 -7.303784 -5.617687 -31.578811 -2.826733 -0.794185 4.728108 -0.290840 -1.700352 6.009361 0.022100 0.000000 -33.414600 10.144964 -2.490735 -0.251613 9.782034 -0.169011 -12.257221 -0.093701 -2.341958 37.296783 -1.462296 -7.680874 5.171184 -1.951500 -0.000001 -53.228100
0.599279 17.461338 0.165308 18.835845 74.977971 38.033954 -9.349415 0.605142 3.780571 -7.157571 -6.734579 -31.806874 -2.699497 -0.670472 6.808209 -0.123502 -0.625530 4.624384 0.251900 -0.000000 -33.211500 10.319459 -2.330159 -0.457115 9.282074 -0.488490 -13.068984 -0.295322 -2.492587 40.475714 -1.862297 -9.898703 3.327320 -2.175200 -0.000000 -50.091700
0.786813 17.366353 0.201489 19.346226 74.619327 38.427722 -9.234830 0.617834 3.815684 -7.159762 -7.692339 -32.238423 -2.583654 -0.514400 9.417359 0.054768 0.369443 2.924412 0.409401 0.000000 -33.192699 10.504290 -2.170619 -0.619499 8.727236 -0.674316 -13.962439 -0.479301 -2.651603 43.719212 -2.219987 -11.814889 1.421073 -2.202500 -0.000000 -46.451200
0.971970 17.260944 0.238468 19.897961 74.216394 38.882870 -9.115257 0.627053 3.806835 -7.322524 -8.492748 -32.855555 -2.481881 -0.330097 12.475015 0.242704 1.286320 0.965547 0.486500 0.000000 -33.377300 10.704000 -2.017832 -0.733448 8.101597 -0.729595 -14.958614 -0.647710 -2.821585 47.015149 -2.511794 -13.332074 -0.505561 -2.041200 -0.000000 -42.606601
1.155066 17.146082 0.276011 20.405505 73.767469 39.328720 -9.001660 0.632955 3.752879 -7.632392 -9.085407 -33.681631 -2.395288 -0.114791 15.955392 0.432665 2.075509 -1.222278 0.472201 -0.000000 -33.699999 10.910185 -1.878039 -0.789343 7.437764 -0.637992 -16.077385 -0.804970 -3.000243 50.345186 -2.725718 -14.413888 -2.408271 -1.729001 0.000000 -38.864400
1.335471 17.023624 0.314243 20.940870 73.276346 39.820596 -8.891019 0.636664 3.658200 -8.085998 -9.525796 -34.635766 -2.320533 0.125646 19.731007 0.627513 2.788487 -3.566773 0.378200 -0.000000 -34.090100 11.128029 -1.748746 -0.803750 6.711404 -0.447600 -17.297184 -0.953896 -3.189081 53.677350 -2.853062 -15.027972 -4.260058 -1.310200 0.000000 -35.446100
1.515468 16.894547 0.352560 21.205637 72.742227 40.127171 -8.810103 0.638510 3.542099 -8.580524 -9.737502 -35.805343 -2.250670 0.390394 23.752687 0.818024 3.373036 -6.041867 0.206400 -0.000000 -34.541000 11.329838 -1.639198 -0.740262 6.043376 -0.071187 -18.693655 -1.100546 -3.375275 56.999222 -2.905472 -15.241684 -6.044567 -0.842501 0.000000 -32.464300
1.694046 16.761871 0.391553 21.342139 72.172550 40.352698 -8.748587 0.640250 3.407627 -9.121669 -9.805524 -37.047273 -2.183393 0.666342 27.834765 1.009376 3.905984 -8.559987 -0.023800 -0.000001 -35.005600 11.526204 -1.540501 -0.629521 5.386550 0.411288 -20.210445 -1.245243 -3.560934 60.259109 -2.887003 -15.074053 -7.751795 -0.368400 -0.000000 -29.975100
1.871559 16.628716 0.431927 21.357705 71.559082 40.485795 -8.703685 0.645266 3.254931 -9.703322 -9.736092 -38.264299 -2.120237 0.941386 31.823604 1.200457 4.406703 -11.063555 -0.301800 -0.000001 -35.470500 11.718732 -1.448329 -0.481013 4.732938 0.976437 -21.810551 -1.388586 -3.744206 63.404967 -2.810779 -14.592115 -9.372287 0.073300 0.000000 -27.985100
2.047297 16.498199 0.473351 21.290909 70.938386 40.556026 -8.675771 0.653888 3.094556 -10.291063 -9.580627 -39.397613 -2.059204 1.206250 35.603188 1.389715 4.887340 -13.495996 -0.617100 0.000000 -35.940500 11.900895 -1.356807 -0.314526 4.105074 1.563992 -23.472199 -1.529477 -3.921941 66.389278 -2.694574 -13.888410 -10.894768 0.454900 0.000000 -26.474400
2.221340 16.373770 0.516249 21.161497 70.317260 40.560230 -8.661599 0.668837 2.925382 -10.877524 -9.345534 -40.364099 -2.004294 1.451008 39.059417 1.574104 5.347258 -15.815170 -0.959800 -0.000000 -36.420300 12.071245 -1.261335 -0.143393 3.506546 2.139254 -25.152793 -1.666633 -4.092172 69.161341 -2.557501 -13.065172 -12.306187 0.763300 0.000000 -25.406901
2.393832 16.258671 0.560960 20.984489 69.702537 40.491494 -8.657903 0.692634 2.745641 -11.454566 -9.034441 -41.092237 -1.960087 1.667510 42.101914 1.750107 5.780077 -17.985954 -1.318400 0.000000 -36.913600 12.227600 -1.158483 0.020505 2.945540 2.672931 -26.810929 -1.798161 -4.252875 71.676523 -2.418706 -12.227490 -13.595340 0.999900 -0.000000 -24.722800
